<svg width="32" height="32" viewBox="0 0 32 32" fill="none" xmlns="http://www.w3.org/2000/svg">
  <path d="M16 2C13.2386 2 11 4.23858 11 7C11 9.76142 13.2386 12 16 12C18.7614 12 21 9.76142 21 7C21 4.23858 18.7614 2 16 2Z" fill="#D4A017"/>
  <path d="M7 10C4.79086 10 3 11.7909 3 14C3 16.2091 4.79086 18 7 18C9.20914 18 11 16.2091 11 14C11 11.7909 9.20914 10 7 10Z" fill="#D4A017"/>
  <path d="M25 10C22.7909 10 21 11.7909 21 14C21 16.2091 22.7909 18 25 18C27.2091 18 29 16.2091 29 14C29 11.7909 27.2091 10 25 10Z" fill="#D4A017"/>
  <path d="M5 20C3.34315 20 2 21.3431 2 23C2 24.6569 3.34315 26 5 26C6.65685 26 8 24.6569 8 23C8 21.3431 6.65685 20 5 20Z" fill="#D4A017"/>
  <path d="M27 20C25.3431 20 24 21.3431 24 23C24 24.6569 25.3431 26 27 26C28.6569 26 30 24.6569 30 23C30 21.3431 28.6569 20 27 20Z" fill="#D4A017"/>
  <path d="M16 18C11.5817 18 8 21.5817 8 26C8 27.1046 8.89543 28 10 28H22C23.1046 28 24 27.1046 24 26C24 21.5817 20.4183 18 16 18Z" fill="#8B6914"/>
</svg>
