<svg width="1200" height="630" viewBox="0 0 1200 630" fill="none" xmlns="http://www.w3.org/2000/svg">
  <!-- Background Gradient -->
  <defs>
    <linearGradient id="bgGradient" x1="0%" y1="0%" x2="100%" y2="100%">
      <stop offset="0%" style="stop-color:#2C1810;stop-opacity:1" />
      <stop offset="50%" style="stop-color:#8B6914;stop-opacity:1" />
      <stop offset="100%" style="stop-color:#D4A017;stop-opacity:1" />
    </linearGradient>
    <radialGradient id="glowGradient" cx="50%" cy="50%" r="50%">
      <stop offset="0%" style="stop-color:#FFD700;stop-opacity:0.3" />
      <stop offset="100%" style="stop-color:#FFD700;stop-opacity:0" />
    </radialGradient>
  </defs>

  <!-- Background -->
  <rect width="1200" height="630" fill="url(#bgGradient)"/>

  <!-- Glow Effect -->
  <circle cx="600" cy="315" r="400" fill="url(#glowGradient)"/>

  <!-- Decorative Paw Prints -->
  <g opacity="0.15" fill="#FFFFFF">
    <circle cx="150" cy="100" r="30"/>
    <circle cx="200" cy="120" r="20"/>
    <circle cx="120" cy="140" r="20"/>
    <ellipse cx="160" cy="160" rx="50" ry="40"/>

    <circle cx="1000" cy="500" r="25"/>
    <circle cx="1050" cy="515" r="18"/>
    <circle cx="970" cy="535" r="18"/>
    <ellipse cx="1010" cy="550" rx="45" ry="35"/>
  </g>

  <!-- Giant Jaguar Emoji Background -->
  <text x="600" y="400" font-size="300" text-anchor="middle" opacity="0.2">🐆</text>

  <!-- Logo Paw -->
  <g transform="translate(500, 80)">
    <circle cx="100" cy="0" r="35" fill="#D4A017"/>
    <circle cx="60" cy="30" r="25" fill="#D4A017"/>
    <circle cx="140" cy="30" r="25" fill="#D4A017"/>
    <circle cx="50" cy="70" r="22" fill="#D4A017"/>
    <circle cx="150" cy="70" r="22" fill="#D4A017"/>
    <ellipse cx="100" cy="85" rx="55" ry="45" fill="#8B6914"/>
  </g>

  <!-- Main Title -->
  <text x="600" y="230" font-family="'Playfair Display', Georgia, serif" font-size="72" font-weight="800" fill="#FFFFFF" text-anchor="middle">
    Conexão Onça Pintada
  </text>

  <!-- Highlight Box -->
  <rect x="300" y="270" width="600" height="120" rx="20" fill="rgba(255, 255, 255, 0.15)" stroke="#FFD700" stroke-width="3"/>

  <!-- Stats -->
  <text x="600" y="325" font-family="Arial, sans-serif" font-size="56" font-weight="900" fill="#FFD700" text-anchor="middle">
    150+ Onças Resgatadas
  </text>

  <!-- Subtitle -->
  <text x="600" y="365" font-family="Arial, sans-serif" font-size="32" font-weight="600" fill="#FFFFFF" text-anchor="middle">
    8 Anos de Impacto Real
  </text>

  <!-- CTA -->
  <g transform="translate(400, 430)">
    <rect width="400" height="80" rx="40" fill="#2E7D32"/>
    <rect width="400" height="80" rx="40" fill="url(#glowGradient)" opacity="0.5"/>
    <text x="200" y="52" font-family="Arial, sans-serif" font-size="36" font-weight="700" fill="#FFFFFF" text-anchor="middle">
      💚 DOE AGORA
    </text>
  </g>

  <!-- Bottom Text -->
  <text x="600" y="570" font-family="Arial, sans-serif" font-size="24" fill="rgba(255, 255, 255, 0.9)" text-anchor="middle">
    Preserve os Grandes Felinos do Brasil | ong.avila.inc
  </text>

  <!-- Decorative Elements -->
  <circle cx="250" cy="500" r="8" fill="#FFD700" opacity="0.6"/>
  <circle cx="280" cy="520" r="6" fill="#FFD700" opacity="0.6"/>
  <circle cx="920" cy="180" r="10" fill="#FFD700" opacity="0.6"/>
  <circle cx="950" cy="200" r="7" fill="#FFD700" opacity="0.6"/>
</svg>
